<svg fill="none" height="24" viewBox="0 0 24 24" width="24" xmlns="http://www.w3.org/2000/svg"><g fill="#292d32"><path d="m6.30975 20.0899c-.57 0-1.12999-.15-1.64999-.45-1.04-.6-1.64999-1.66-1.64999-2.86v-9.57001c0-1.19.61999-2.25999 1.64999-2.85999 1.04-.6 2.26999-.6 3.29999 0l8.29005 4.78c1.03.6 1.6499 1.67 1.6499 2.86s-.6199 2.26-1.6499 2.86l-8.29005 4.78c-.52.31-1.08.46-1.65.46zm0-14.68c-.31 0-.61999.07999-.89999.23999-.56.33-.89999.91-.89999 1.56v9.57001c0 .65.33999 1.23.89999 1.56.56.32 1.23999.33 1.79999 0l8.29005-4.78c.56-.33.8999-.91.8999-1.56s-.3399-1.23-.8999-1.56l-8.29005-4.78c-.28-.16-.59-.25-.9-.25z"/><path d="m20.2402 18.9303c-.41 0-.75-.34-.75-.75v-12.35999c0-.41.34-.75.75-.75s.75.34.75.75v12.35999c0 .41-.33.75-.75.75z"/></g></svg>